<?xml version="1.0" standalone="yes"?><!DOCTYPE svg PUBLIC "-//W3C//DTD SVG 1.1//EN" "http://www.w3.org/Graphics/SVG/1.1/DTD/svg11.dtd"[
<!ENTITY E1 'stroke-miterlimit:9;stroke-linecap:butt;opacity:1;stroke-width:3;fill:none;stroke-linejoin:miter;stroke:rgb(0,128,0);'><!ENTITY E2 'stroke-miterlimit:9;stroke-linecap:butt;opacity:1;stroke-width:2;fill:none;stroke-linejoin:miter;stroke:rgb(255,192,203);'>
]><svg id="SvgGdi_output" xmlns="http://www.w3.org/2000/svg" xmlns:xlink="http://www.w3.org/1999/xlink"><rect width="100.00%" x="0.00" y="0.00" height="100.00%" id="background" style="fill:rgb(240,240,240);" /><g id="root_group" style="shape-rendering:crispEdges;"><line x1="0.00" x2="200.00" y2="200.00" id="44" style="&E1;" y1="0.00" /><line x1="200.00" x2="0.00" y2="200.00" id="45" style="&E1;" y1="0.00" /><ellipse ry="12.50" style="&E2;" id="46" cx="12.50" rx="12.50" cy="12.50" /><ellipse ry="12.50" style="&E2;" id="47" cx="12.50" rx="12.50" cy="187.50" /><ellipse ry="12.50" style="&E2;" id="48" cx="37.50" rx="12.50" cy="37.50" /><ellipse ry="12.50" style="&E2;" id="49" cx="37.50" rx="12.50" cy="162.50" /><ellipse ry="12.50" style="&E2;" id="50" cx="62.50" rx="12.50" cy="62.50" /><ellipse ry="12.50" style="&E2;" id="51" cx="62.50" rx="12.50" cy="137.50" /><ellipse ry="12.50" style="&E2;" id="52" cx="87.50" rx="12.50" cy="87.50" /><ellipse ry="12.50" style="&E2;" id="53" cx="87.50" rx="12.50" cy="112.50" /><ellipse ry="12.50" style="&E2;" id="54" cx="112.50" rx="12.50" cy="112.50" /><ellipse ry="12.50" style="&E2;" id="55" cx="112.50" rx="12.50" cy="87.50" /><ellipse ry="12.50" style="&E2;" id="56" cx="137.50" rx="12.50" cy="137.50" /><ellipse ry="12.50" style="&E2;" id="57" cx="137.50" rx="12.50" cy="62.50" /><ellipse ry="12.50" style="&E2;" id="58" cx="162.50" rx="12.50" cy="162.50" /><ellipse ry="12.50" style="&E2;" id="59" cx="162.50" rx="12.50" cy="37.50" /><ellipse ry="12.50" style="&E2;" id="60" cx="187.50" rx="12.50" cy="187.50" /><ellipse ry="12.50" style="&E2;" id="61" cx="187.50" rx="12.50" cy="12.50" /></g><defs id="clips_hatches_and_gradients" /></svg>